<?xml version="1.0" standalone="no"?>
<!DOCTYPE svg PUBLIC "-//W3C//DTD SVG 1.1//EN" "http://www.w3.org/Graphics/SVG/1.1/DTD/svg11.dtd">

<svg width="556" height="138" version="1.1" xmlns="http://www.w3.org/2000/svg">
	<ellipse stroke="black" stroke-width="1" fill="none" cx="88.5" cy="65.5" rx="20" ry="20"/>
	<text x="83.5" y="71.5" font-family="Times New Roman" font-size="20">0</text>
	<ellipse stroke="black" stroke-width="1" fill="none" cx="88.5" cy="65.5" rx="14" ry="14"/>
	<ellipse stroke="black" stroke-width="1" fill="none" cx="169.5" cy="65.5" rx="20" ry="20"/>
	<text x="164.5" y="71.5" font-family="Times New Roman" font-size="20">1</text>
	<ellipse stroke="black" stroke-width="1" fill="none" cx="169.5" cy="65.5" rx="14" ry="14"/>
	<ellipse stroke="black" stroke-width="1" fill="none" cx="251.5" cy="65.5" rx="20" ry="20"/>
	<text x="246.5" y="71.5" font-family="Times New Roman" font-size="20">2</text>
	<ellipse stroke="black" stroke-width="1" fill="none" cx="251.5" cy="65.5" rx="14" ry="14"/>
	<ellipse stroke="black" stroke-width="1" fill="none" cx="366.5" cy="65.5" rx="20" ry="20"/>
	<text x="356.5" y="71.5" font-family="Times New Roman" font-size="20">23</text>
	<ellipse stroke="black" stroke-width="1" fill="none" cx="366.5" cy="65.5" rx="14" ry="14"/>
	<ellipse stroke="black" stroke-width="1" fill="none" cx="449.5" cy="65.5" rx="20" ry="20"/>
	<text x="439.5" y="71.5" font-family="Times New Roman" font-size="20">24</text>
	<ellipse stroke="black" stroke-width="1" fill="none" cx="449.5" cy="65.5" rx="14" ry="14"/>
	<ellipse stroke="black" stroke-width="1" fill="none" cx="534.5" cy="65.5" rx="20" ry="20"/>
	<text x="524.5" y="71.5" font-family="Times New Roman" font-size="20">25</text>
	<ellipse stroke="black" stroke-width="1" fill="none" cx="534.5" cy="65.5" rx="14" ry="14"/>
	<polygon stroke="black" stroke-width="1" points="40.5,65.5 68.5,65.5"/>
	<text x="1.5" y="71.5" font-family="Times New Roman" font-size="20">start</text>
	<polygon fill="black" stroke-width="1" points="68.5,65.5 60.5,60.5 60.5,70.5"/>
	<polygon stroke="black" stroke-width="1" points="108.5,65.5 149.5,65.5"/>
	<polygon fill="black" stroke-width="1" points="149.5,65.5 141.5,60.5 141.5,70.5"/>
	<path stroke="black" stroke-width="1" fill="none" d="M 178.317,83.365 A 15,15 0 1 1 160.683,83.365"/>
	<text x="164.5" y="131.5" font-family="Times New Roman" font-size="20">b</text>
	<polygon fill="black" stroke-width="1" points="160.683,83.365 151.936,86.898 160.026,92.776"/>
	<path stroke="black" stroke-width="1" fill="none" d="M 79.683,47.635 A 15,15 0 1 1 97.317,47.635"/>
	<text x="84.5" y="11.5" font-family="Times New Roman" font-size="20">a</text>
	<polygon fill="black" stroke-width="1" points="97.317,47.635 106.064,44.102 97.974,38.224"/>
	<polygon stroke="black" stroke-width="1" points="189.5,65.5 231.5,65.5"/>
	<polygon fill="black" stroke-width="1" points="231.5,65.5 223.5,60.5 223.5,70.5"/>
	<path stroke="black" stroke-width="1" fill="none" d="M 242.683,47.635 A 15,15 0 1 1 260.317,47.635"/>
	<text x="247.5" y="11.5" font-family="Times New Roman" font-size="20">c</text>
	<polygon fill="black" stroke-width="1" points="260.317,47.635 269.064,44.102 260.974,38.224"/>
	<polygon stroke="black" stroke-width="1" points="386.5,65.5 429.5,65.5"/>
	<polygon fill="black" stroke-width="1" points="429.5,65.5 421.5,60.5 421.5,70.5"/>
	<polygon stroke="black" stroke-width="1" points="271.5,65.5 346.5,65.5"/>
	<polygon fill="black" stroke-width="1" points="346.5,65.5 338.5,60.5 338.5,70.5"/>
	<text x="301.5" y="86.5" font-family="Times New Roman" font-size="20">...</text>
	<path stroke="black" stroke-width="1" fill="none" d="M 357.683,47.635 A 15,15 0 1 1 375.317,47.635"/>
	<text x="361.5" y="11.5" font-family="Times New Roman" font-size="20">x</text>
	<polygon fill="black" stroke-width="1" points="375.317,47.635 384.064,44.102 375.974,38.224"/>
	<path stroke="black" stroke-width="1" fill="none" d="M 458.317,83.365 A 15,15 0 1 1 440.683,83.365"/>
	<text x="444.5" y="131.5" font-family="Times New Roman" font-size="20">y</text>
	<polygon fill="black" stroke-width="1" points="440.683,83.365 431.936,86.898 440.026,92.776"/>
	<polygon stroke="black" stroke-width="1" points="469.5,65.5 514.5,65.5"/>
	<polygon fill="black" stroke-width="1" points="514.5,65.5 506.5,60.5 506.5,70.5"/>
	<path stroke="black" stroke-width="1" fill="none" d="M 525.683,47.635 A 15,15 0 1 1 543.317,47.635"/>
	<text x="530.5" y="11.5" font-family="Times New Roman" font-size="20">z</text>
	<polygon fill="black" stroke-width="1" points="543.317,47.635 552.064,44.102 543.974,38.224"/>
</svg>
