<?xml version="1.0" standalone="no"?>
<!DOCTYPE svg PUBLIC "-//W3C//DTD SVG 1.1//EN" "http://www.w3.org/Graphics/SVG/1.1/DTD/svg11.dtd">

<svg width="333" height="183" version="1.1" xmlns="http://www.w3.org/2000/svg">
	<ellipse stroke="black" stroke-width="1" fill="none" cx="132.5" cy="133.5" rx="48" ry="48"/>
	<text x="107.5" y="139.5" font-family="Times New Roman" font-size="20">0, 1, 3</text>
	<ellipse stroke="black" stroke-width="1" fill="none" cx="132.5" cy="133.5" rx="42" ry="42"/>
	<ellipse stroke="black" stroke-width="1" fill="none" cx="283.5" cy="133.5" rx="48" ry="48"/>
	<text x="248.5" y="139.5" font-family="Times New Roman" font-size="20">0, 1, 2, 3</text>
	<ellipse stroke="black" stroke-width="1" fill="none" cx="283.5" cy="133.5" rx="42" ry="42"/>
	<polygon stroke="black" stroke-width="1" points="180.5,133.5 235.5,133.5"/>
	<polygon fill="black" stroke-width="1" points="235.5,133.5 227.5,128.5 227.5,138.5"/>
	<text x="203.5" y="154.5" font-family="Times New Roman" font-size="20">a</text>
	<polygon stroke="black" stroke-width="1" points="40.5,133.5 84.5,133.5"/>
	<text x="1.5" y="139.5" font-family="Times New Roman" font-size="20">start</text>
	<polygon fill="black" stroke-width="1" points="84.5,133.5 76.5,128.5 76.5,138.5"/>
	<path stroke="black" stroke-width="1" fill="none" d="M 111.34,90.625 A 36,36 0 1 1 153.66,90.625"/>
	<text x="127.5" y="16.5" font-family="Times New Roman" font-size="20">b</text>
	<polygon fill="black" stroke-width="1" points="153.66,90.625 162.408,87.091 154.317,81.214"/>
	<path stroke="black" stroke-width="1" fill="none" d="M 166.503,100.481 A 87.251,87.251 0 0 1 249.497,100.481"/>
	<polygon fill="black" stroke-width="1" points="166.503,100.481 175.919,101.074 171.163,92.278"/>
	<text x="203.5" y="80.5" font-family="Times New Roman" font-size="20">b</text>
	<path stroke="black" stroke-width="1" fill="none" d="M 262.34,90.625 A 36,36 0 1 1 304.66,90.625"/>
	<text x="279.5" y="16.5" font-family="Times New Roman" font-size="20">a</text>
	<polygon fill="black" stroke-width="1" points="304.66,90.625 313.408,87.091 305.317,81.214"/>
</svg>
